<?xml version="1.0" encoding="UTF-8" standalone="no"?><!DOCTYPE svg PUBLIC "-//W3C//DTD SVG 1.1//EN" "http://www.w3.org/Graphics/SVG/1.1/DTD/svg11.dtd"><svg width="100%" height="100%" viewBox="0 0 400 392" version="1.1" xmlns="http://www.w3.org/2000/svg" xmlns:xlink="http://www.w3.org/1999/xlink" xml:space="preserve" xmlns:serif="http://www.serif.com/" style="fill-rule:evenodd;clip-rule:evenodd;stroke-linejoin:round;stroke-miterlimit:1.41421;"><g><path d="M200,0.082l200,195.918l-200,195.918l-200,-195.918l200,-195.918Z" style="fill:#fff;"/><path d="M400,196l-200,195.918l-200,-195.918l200,-195.918l200,195.918Zm-392.855,0l192.855,188.919l192.855,-188.919l-192.855,-188.919l-192.855,188.919Z" style="fill:#333;"/><path d="M200,31.429l168,164.571l-168,164.571l-168,-164.571l168,-164.571Z" style="fill:#333;"/><g transform="matrix(1.2449,0,0,1.2449,-70.3022,13.9959)"><text x="129px" y="247px" style="font-family:'Lora-Regular', 'Lora';font-size:288px;fill:#fff;">L</text><path d="M212.321,33.653l2.547,0.891l2.285,1.436l1.907,1.907l1.436,2.285l0.891,2.547l0.302,2.681l0,9.504l-0.394,3.057l-1.157,2.857l-1.843,2.469l-2.41,1.922l-2.819,1.247l-3.043,0.491l-0.273,0.009l-0.231,0.009l-0.226,0.01l-0.222,0.011l-0.218,0.013l-0.213,0.014l-0.209,0.016l-0.205,0.016l-0.2,0.018l-0.196,0.019l-0.192,0.02l-0.187,0.021l-0.183,0.022l-0.178,0.023l-0.173,0.023l-0.169,0.025l-0.165,0.025l-0.173,0.029l-0.065,0.011l-0.077,0.013l-0.077,0.014l-0.074,0.014l-0.074,0.014l-0.072,0.014l-0.071,0.014l-0.071,0.014l-0.069,0.015l-0.068,0.014l-0.066,0.015l-0.066,0.015l-0.064,0.014l-0.063,0.015l-0.062,0.015l-0.061,0.015l-0.059,0.015l-0.059,0.015l-0.057,0.015l-0.056,0.015l-0.055,0.015l-0.054,0.015l-0.052,0.015l-0.052,0.015l-0.05,0.015l-0.049,0.015l-0.048,0.015l-0.047,0.015l-0.045,0.015l-0.044,0.014l-0.044,0.015l-0.042,0.014l-0.041,0.015l-0.04,0.014l-0.038,0.014l-0.038,0.014l-0.036,0.013l-0.035,0.014l-0.034,0.013l-0.034,0.013l-0.031,0.013l-0.031,0.013l-0.03,0.013l-0.028,0.012l-0.028,0.012l-0.026,0.012l-0.025,0.011l-0.024,0.011l-0.023,0.011l-0.023,0.011l-0.021,0.01l-0.02,0.01l-0.019,0.01l-0.018,0.009l-0.017,0.009l-0.016,0.008l-0.015,0.008l-0.014,0.008l-0.014,0.008l-0.012,0.007l-0.011,0.006l-0.01,0.006l-0.01,0.006l-0.009,0.005l-0.008,0.005l-0.007,0.005l-0.003,0.002l-0.05,0.051l-0.049,0.052l-0.047,0.051l-0.046,0.049l-0.044,0.05l-0.043,0.048l-0.041,0.048l-0.04,0.047l-0.039,0.047l-0.037,0.046l-0.036,0.046l-0.035,0.045l-0.033,0.044l-0.033,0.043l-0.031,0.044l-0.03,0.042l-0.03,0.043l-0.028,0.041l-0.027,0.041l-0.026,0.041l-0.026,0.04l-0.024,0.04l-0.024,0.04l-0.023,0.039l-0.022,0.039l-0.022,0.039l-0.021,0.038l-0.02,0.039l-0.02,0.038l-0.019,0.038l-0.018,0.038l-0.018,0.038l-0.018,0.038l-0.017,0.039l-0.016,0.038l-0.017,0.038l-0.015,0.039l-0.016,0.039l-0.014,0.039l-0.015,0.04l-0.014,0.041l-0.014,0.04l-0.014,0.041l-0.013,0.042l-0.013,0.042l-0.012,0.043l-0.013,0.044l-0.011,0.044l-0.012,0.045l-0.011,0.046l-0.011,0.048l-0.011,0.048l-0.01,0.048l-0.01,0.05l-0.01,0.052l-0.009,0.052l-0.009,0.053l-0.009,0.054l-0.008,0.057l-0.007,0.057l-0.008,0.058l-0.006,0.06l-0.009,0.081l-0.011,0.123l-0.014,0.148l-0.014,0.155l-0.014,0.161l-0.013,0.167l-0.013,0.164l-0.028,0.371l-0.027,0.384l-0.026,0.406l-0.025,0.426l-0.025,0.448l-0.024,0.468l-0.023,0.488l-0.023,0.508l-0.021,0.528l-0.021,0.547l-0.019,0.566l-0.019,0.585l-0.018,0.604l-0.016,0.623l-0.016,0.641l-0.014,0.66l-0.014,0.679l-0.012,0.697l-0.012,0.715l-0.01,0.733l-0.01,0.751l-0.008,0.769l-0.007,0.788l-0.006,0.805l-0.005,0.823l-0.004,0.841l-0.003,0.859l-0.001,0.877l-0.001,0.898l0,123.553l-0.001,0.946l-0.002,0.937l-0.005,0.923l-0.006,0.909l-0.007,0.895l-0.01,0.882l-0.011,0.868l-0.013,0.854l-0.015,0.84l-0.017,0.827l-0.018,0.814l-0.013,0.508l40.855,-0.655l0.247,-0.005l0.229,-0.005l0.227,-0.006l0.225,-0.008l0.223,-0.008l0.222,-0.009l0.221,-0.011l0.219,-0.011l0.217,-0.013l0.216,-0.013l0.214,-0.015l0.213,-0.015l0.212,-0.017l0.209,-0.017l0.207,-0.019l0.207,-0.019l0.205,-0.021l0.203,-0.021l0.202,-0.022l0.2,-0.024l0.198,-0.024l0.198,-0.025l0.195,-0.026l0.194,-0.027l0.193,-0.028l0.191,-0.028l0.189,-0.03l0.188,-0.03l0.186,-0.032l0.185,-0.032l0.183,-0.033l0.182,-0.034l0.18,-0.035l0.179,-0.035l0.177,-0.037l0.176,-0.037l0.174,-0.038l0.172,-0.039l0.172,-0.039l0.17,-0.041l0.167,-0.041l0.167,-0.042l0.166,-0.043l0.164,-0.043l0.162,-0.044l0.161,-0.045l0.16,-0.046l0.158,-0.046l0.156,-0.047l0.156,-0.048l0.154,-0.049l0.153,-0.049l0.15,-0.05l0.15,-0.05l0.149,-0.052l0.147,-0.052l0.146,-0.052l0.144,-0.053l0.144,-0.054l0.141,-0.055l0.141,-0.055l0.139,-0.056l0.139,-0.057l0.137,-0.057l0.135,-0.058l0.134,-0.058l0.133,-0.059l0.133,-0.06l0.13,-0.06l0.13,-0.061l0.129,-0.062l0.127,-0.062l0.126,-0.062l0.126,-0.064l0.124,-0.064l0.123,-0.065l0.122,-0.065l0.12,-0.065l0.12,-0.067l0.119,-0.067l0.118,-0.068l0.117,-0.068l0.116,-0.069l0.115,-0.07l0.114,-0.07l0.113,-0.071l0.112,-0.072l0.112,-0.072l0.11,-0.073l0.11,-0.073l0.109,-0.074l0.108,-0.075l0.107,-0.076l0.106,-0.076l0.106,-0.077l0.105,-0.078l0.104,-0.079l0.103,-0.078l0.103,-0.08l0.102,-0.081l0.101,-0.081l0.101,-0.082l0.099,-0.083l0.1,-0.084l0.099,-0.085l0.098,-0.085l0.097,-0.086l0.097,-0.087l0.096,-0.087l0.096,-0.089l0.095,-0.09l0.095,-0.09l0.094,-0.091l0.093,-0.092l0.093,-0.094l0.093,-0.094l0.092,-0.095l0.091,-0.096l0.091,-0.097l0.091,-0.098l0.09,-0.099l0.089,-0.1l0.089,-0.101l0.089,-0.102l0.089,-0.104l0.087,-0.104l0.087,-0.105l0.086,-0.104l0.082,-0.103l0.08,-0.101l0.08,-0.103l0.079,-0.104l0.08,-0.106l0.079,-0.108l0.079,-0.109l0.08,-0.111l0.078,-0.113l0.08,-0.115l0.078,-0.116l0.079,-0.118l0.078,-0.12l0.078,-0.121l0.078,-0.124l0.078,-0.125l0.078,-0.127l0.077,-0.129l0.077,-0.131l0.077,-0.133l0.077,-0.134l0.077,-0.137l0.076,-0.138l0.076,-0.14l0.076,-0.143l0.075,-0.144l0.076,-0.146l0.075,-0.149l0.074,-0.15l0.074,-0.152l0.075,-0.155l0.073,-0.156l0.073,-0.158l0.073,-0.16l0.073,-0.163l0.072,-0.164l0.072,-0.168l0.072,-0.168l0.071,-0.17l0.07,-0.174l0.071,-0.175l0.069,-0.176l0.069,-0.179l0.069,-0.182l0.069,-0.183l0.067,-0.185l0.068,-0.188l0.067,-0.19l0.066,-0.192l0.066,-0.193l0.065,-0.196l0.065,-0.199l0.064,-0.2l0.063,-0.203l0.063,-0.204l0.062,-0.207l0.062,-0.209l0.061,-0.211l0.061,-0.213l0.06,-0.215l0.059,-0.218l0.059,-0.22l0.058,-0.221l0.057,-0.224l0.056,-0.226l0.056,-0.228l0.055,-0.23l0.055,-0.233l0.054,-0.235l0.053,-0.236l0.052,-0.239l0.051,-0.241l0.051,-0.243l0.05,-0.245l0.05,-0.248l0.048,-0.249l0.048,-0.252l0.047,-0.254l0.046,-0.255l0.045,-0.258l0.045,-0.26l0.043,-0.262l0.043,-0.264l0.042,-0.267l0.041,-0.268l0.041,-0.271l0.039,-0.272l0.039,-0.275l0.038,-0.277l0.037,-0.279l0.036,-0.281l0.035,-0.283l0.034,-0.285l0.033,-0.287l0.033,-0.29l0.032,-0.291l0.03,-0.294l0.03,-0.295l0.029,-0.297l0.028,-0.3l0.027,-0.302l0.026,-0.304l0.025,-0.305l0.024,-0.308l0.023,-0.31l0.023,-0.312l0.021,-0.313l0.02,-0.316l0.02,-0.319l0.018,-0.32l0.018,-0.322l0.016,-0.324l0.016,-0.325l0.015,-0.329l0.013,-0.33l0.013,-0.332l0.011,-0.334l0.011,-0.336l0.01,-0.338l0.008,-0.34l0.008,-0.342l0.006,-0.344l0.006,-0.346l0.005,-0.348l0.003,-0.35l0.003,-0.352l0.001,-0.354l0.001,-0.373l0.305,-2.679l0.893,-2.543l1.437,-2.281l1.907,-1.905l2.284,-1.433l2.544,-0.89l2.679,-0.301l9.792,0l2.73,0.313l2.588,0.924l2.311,1.486l1.915,1.97l1.418,2.354l0.848,2.613l0.234,2.738l-1.728,59.616l-0.484,3.05l-1.243,2.826l-1.921,2.418l-2.472,1.85l-2.862,1.161l-3.062,0.395l-142.848,0l-2.681,-0.302l-2.547,-0.891l-2.285,-1.436l-1.907,-1.907l-1.436,-2.285l-0.891,-2.547l-0.302,-2.681l0,-9.504l0.394,-3.057l1.157,-2.857l1.844,-2.469l2.41,-1.922l2.818,-1.247l3.043,-0.491l0.273,-0.009l0.231,-0.009l0.226,-0.01l0.222,-0.011l0.218,-0.013l0.213,-0.014l0.209,-0.016l0.205,-0.016l0.2,-0.018l0.196,-0.019l0.192,-0.02l0.187,-0.021l0.183,-0.022l0.178,-0.023l0.173,-0.023l0.169,-0.025l0.165,-0.025l0.174,-0.029l0.064,-0.011l0.077,-0.013l0.077,-0.014l0.073,-0.014l0.075,-0.014l0.073,-0.014l0.07,-0.014l0.071,-0.014l0.069,-0.015l0.067,-0.014l0.067,-0.015l0.066,-0.015l0.064,-0.014l0.063,-0.015l0.062,-0.015l0.061,-0.015l0.06,-0.015l0.057,-0.015l0.058,-0.015l0.056,-0.015l0.055,-0.015l0.054,-0.015l0.053,-0.015l0.051,-0.016l0.049,-0.014l0.05,-0.015l0.048,-0.015l0.047,-0.015l0.046,-0.015l0.043,-0.014l0.044,-0.015l0.043,-0.015l0.04,-0.014l0.04,-0.014l0.038,-0.014l0.037,-0.013l0.037,-0.014l0.036,-0.014l0.033,-0.013l0.033,-0.013l0.032,-0.013l0.031,-0.013l0.03,-0.013l0.028,-0.012l0.027,-0.012l0.027,-0.011l0.025,-0.012l0.025,-0.011l0.023,-0.011l0.021,-0.01l0.021,-0.011l0.022,-0.01l0.018,-0.009l0.018,-0.01l0.017,-0.009l0.015,-0.008l0.016,-0.008l0.014,-0.008l0.013,-0.007l0.013,-0.008l0.011,-0.006l0.011,-0.007l0.01,-0.005l0.007,-0.005l0.009,-0.005l0.007,-0.005l0.003,-0.002l0.05,-0.052l0.049,-0.051l0.047,-0.05l0.046,-0.051l0.044,-0.048l0.043,-0.049l0.042,-0.049l0.039,-0.046l0.039,-0.047l0.037,-0.046l0.036,-0.046l0.035,-0.044l0.034,-0.045l0.032,-0.044l0.031,-0.042l0.03,-0.043l0.03,-0.042l0.028,-0.042l0.027,-0.041l0.026,-0.041l0.026,-0.04l0.024,-0.04l0.024,-0.04l0.023,-0.039l0.023,-0.039l0.021,-0.039l0.021,-0.038l0.02,-0.039l0.02,-0.038l0.019,-0.038l0.018,-0.038l0.018,-0.038l0.018,-0.039l0.017,-0.038l0.017,-0.038l0.016,-0.038l0.015,-0.039l0.015,-0.039l0.015,-0.04l0.015,-0.039l0.014,-0.041l0.014,-0.04l0.014,-0.041l0.013,-0.042l0.013,-0.042l0.012,-0.043l0.013,-0.044l0.011,-0.044l0.012,-0.045l0.011,-0.047l0.011,-0.047l0.011,-0.047l0.01,-0.049l0.01,-0.05l0.01,-0.051l0.009,-0.053l0.009,-0.053l0.009,-0.055l0.008,-0.055l0.007,-0.058l0.008,-0.058l0.006,-0.06l0.009,-0.08l0.011,-0.124l0.014,-0.149l0.014,-0.155l0.014,-0.16l0.013,-0.167l0.013,-0.164l0.028,-0.371l0.027,-0.384l0.026,-0.406l0.025,-0.426l0.025,-0.448l0.024,-0.468l0.023,-0.488l0.023,-0.508l0.021,-0.528l0.021,-0.547l0.019,-0.566l0.019,-0.585l0.018,-0.604l0.016,-0.623l0.016,-0.641l0.014,-0.66l0.014,-0.679l0.012,-0.696l0.012,-0.715l0.01,-0.734l0.01,-0.751l0.008,-0.769l0.007,-0.788l0.006,-0.805l0.005,-0.823l0.004,-0.841l0.003,-0.859l0.001,-0.877l0.001,-0.898l0,-124.419l0.001,-0.773l0.002,-0.773l0.005,-0.768l0.006,-0.761l0.008,-0.754l0.009,-0.749l0.012,-0.742l0.013,-0.737l0.015,-0.73l0.017,-0.724l0.011,-0.438l-7.254,0.403l-2.788,-0.17l-2.674,-0.806l-2.416,-1.401l-2.029,-1.92l-1.533,-2.335l-0.953,-2.625l-0.324,-2.774l0,-12.672l0.302,-2.681l0.891,-2.547l1.436,-2.285l1.907,-1.907l2.285,-1.436l2.547,-0.891l2.681,-0.302l64.8,0l2.681,0.302Zm-67.481,11.747l0,12.672l20.736,-1.152l-0.053,0.543l-0.052,0.55l-0.049,0.557l-0.048,0.564l-0.047,0.57l-0.045,0.577l-0.043,0.584l-0.041,0.591l-0.04,0.597l-0.038,0.604l-0.036,0.611l-0.034,0.618l-0.033,0.624l-0.032,0.631l-0.029,0.638l-0.028,0.645l-0.026,0.651l-0.025,0.658l-0.022,0.665l-0.021,0.672l-0.02,0.678l-0.018,0.685l-0.016,0.692l-0.014,0.699l-0.013,0.705l-0.011,0.712l-0.009,0.719l-0.007,0.726l-0.006,0.732l-0.005,0.739l-0.002,0.746l-0.001,0.753l0,124.416l-0.001,0.909l-0.001,0.893l-0.003,0.875l-0.004,0.858l-0.005,0.841l-0.006,0.823l-0.008,0.807l-0.008,0.789l-0.01,0.772l-0.01,0.755l-0.012,0.738l-0.013,0.721l-0.014,0.703l-0.015,0.687l-0.017,0.669l-0.017,0.652l-0.019,0.635l-0.019,0.618l-0.021,0.6l-0.022,0.584l-0.023,0.566l-0.024,0.549l-0.026,0.532l-0.026,0.515l-0.028,0.498l-0.028,0.48l-0.03,0.464l-0.031,0.446l-0.032,0.429l-0.017,0.208l-0.016,0.204l-0.017,0.199l-0.018,0.195l-0.017,0.191l-0.018,0.187l-0.019,0.184l-0.021,0.183l-0.022,0.183l-0.025,0.182l-0.026,0.181l-0.028,0.18l-0.03,0.18l-0.031,0.178l-0.034,0.178l-0.035,0.177l-0.038,0.177l-0.039,0.175l-0.04,0.175l-0.043,0.174l-0.045,0.173l-0.046,0.173l-0.048,0.172l-0.05,0.171l-0.052,0.17l-0.054,0.169l-0.055,0.169l-0.057,0.168l-0.06,0.167l-0.06,0.166l-0.063,0.166l-0.065,0.165l-0.066,0.164l-0.069,0.163l-0.07,0.162l-0.072,0.162l-0.073,0.161l-0.076,0.16l-0.077,0.159l-0.08,0.159l-0.081,0.158l-0.083,0.157l-0.084,0.156l-0.087,0.156l-0.088,0.154l-0.09,0.154l-0.093,0.153l-0.093,0.153l-0.096,0.151l-0.098,0.151l-0.099,0.15l-0.101,0.15l-0.103,0.148l-0.105,0.148l-0.107,0.147l-0.108,0.146l-0.11,0.146l-0.113,0.144l-0.114,0.144l-0.115,0.143l-0.118,0.143l-0.119,0.141l-0.122,0.141l-0.123,0.14l-0.125,0.139l-0.127,0.139l-0.128,0.138l-0.131,0.136l-0.132,0.137l-0.134,0.135l-0.068,0.067l-0.068,0.067l-0.07,0.066l-0.07,0.066l-0.07,0.065l-0.072,0.065l-0.072,0.064l-0.072,0.064l-0.074,0.064l-0.074,0.062l-0.075,0.063l-0.076,0.062l-0.076,0.061l-0.077,0.061l-0.078,0.06l-0.078,0.06l-0.079,0.059l-0.08,0.059l-0.08,0.059l-0.082,0.058l-0.082,0.057l-0.082,0.057l-0.083,0.056l-0.084,0.056l-0.085,0.056l-0.086,0.055l-0.086,0.054l-0.087,0.054l-0.087,0.054l-0.088,0.053l-0.089,0.052l-0.09,0.052l-0.09,0.052l-0.091,0.051l-0.092,0.05l-0.093,0.05l-0.093,0.05l-0.094,0.049l-0.094,0.048l-0.095,0.048l-0.096,0.048l-0.097,0.047l-0.098,0.046l-0.098,0.047l-0.098,0.045l-0.1,0.045l-0.1,0.045l-0.101,0.044l-0.102,0.044l-0.102,0.043l-0.103,0.042l-0.104,0.043l-0.104,0.041l-0.105,0.041l-0.106,0.041l-0.106,0.04l-0.108,0.04l-0.108,0.039l-0.108,0.039l-0.11,0.038l-0.11,0.038l-0.11,0.037l-0.112,0.037l-0.112,0.036l-0.113,0.036l-0.113,0.035l-0.115,0.035l-0.115,0.034l-0.115,0.034l-0.117,0.033l-0.117,0.033l-0.117,0.032l-0.119,0.032l-0.119,0.031l-0.12,0.031l-0.121,0.031l-0.121,0.029l-0.122,0.03l-0.123,0.029l-0.123,0.028l-0.124,0.028l-0.125,0.027l-0.125,0.027l-0.127,0.027l-0.127,0.025l-0.127,0.026l-0.128,0.025l-0.129,0.024l-0.13,0.024l-0.131,0.024l-0.131,0.023l-0.132,0.022l-0.265,0.044l-0.269,0.041l-0.271,0.04l-0.275,0.037l-0.277,0.036l-0.279,0.033l-0.283,0.032l-0.286,0.03l-0.288,0.027l-0.291,0.026l-0.294,0.024l-0.297,0.022l-0.299,0.019l-0.302,0.018l-0.306,0.016l-0.308,0.014l-0.31,0.012l-0.314,0.01l0,9.504l142.848,0l1.728,-59.616l-9.792,0l-0.001,0.391l-0.001,0.389l-0.003,0.387l-0.004,0.386l-0.005,0.384l-0.006,0.382l-0.008,0.381l-0.008,0.379l-0.01,0.377l-0.01,0.376l-0.012,0.373l-0.013,0.373l-0.014,0.37l-0.015,0.369l-0.017,0.368l-0.017,0.365l-0.019,0.364l-0.019,0.362l-0.021,0.361l-0.022,0.359l-0.023,0.357l-0.024,0.356l-0.026,0.354l-0.026,0.352l-0.028,0.351l-0.028,0.349l-0.03,0.347l-0.031,0.345l-0.032,0.344l-0.033,0.343l-0.035,0.34l-0.035,0.339l-0.037,0.337l-0.037,0.336l-0.039,0.334l-0.04,0.332l-0.041,0.33l-0.042,0.329l-0.044,0.328l-0.044,0.325l-0.046,0.324l-0.046,0.322l-0.048,0.321l-0.049,0.319l-0.05,0.317l-0.051,0.315l-0.053,0.314l-0.053,0.312l-0.055,0.311l-0.055,0.309l-0.057,0.307l-0.058,0.305l-0.059,0.304l-0.06,0.302l-0.062,0.301l-0.062,0.299l-0.064,0.297l-0.064,0.295l-0.066,0.294l-0.067,0.292l-0.068,0.291l-0.069,0.288l-0.071,0.288l-0.071,0.285l-0.073,0.284l-0.073,0.282l-0.075,0.28l-0.076,0.279l-0.077,0.277l-0.078,0.276l-0.08,0.273l-0.08,0.273l-0.082,0.27l-0.082,0.269l-0.084,0.267l-0.085,0.265l-0.086,0.264l-0.087,0.262l-0.089,0.261l-0.089,0.258l-0.091,0.257l-0.091,0.256l-0.093,0.253l-0.094,0.253l-0.095,0.25l-0.096,0.249l-0.098,0.247l-0.098,0.245l-0.1,0.244l-0.1,0.242l-0.102,0.24l-0.103,0.239l-0.104,0.237l-0.105,0.235l-0.107,0.234l-0.107,0.232l-0.109,0.23l-0.109,0.229l-0.111,0.227l-0.112,0.225l-0.113,0.224l-0.114,0.222l-0.116,0.22l-0.116,0.219l-0.118,0.217l-0.118,0.215l-0.12,0.214l-0.121,0.212l-0.122,0.21l-0.123,0.209l-0.125,0.207l-0.125,0.205l-0.127,0.204l-0.127,0.202l-0.129,0.2l-0.13,0.199l-0.131,0.197l-0.132,0.195l-0.134,0.194l-0.134,0.192l-0.136,0.19l-0.136,0.188l-0.138,0.187l-0.139,0.186l-0.14,0.183l-0.141,0.182l-0.143,0.18l-0.143,0.179l-0.145,0.177l-0.145,0.176l-0.147,0.174l-0.148,0.173l-0.149,0.172l-0.15,0.17l-0.152,0.169l-0.152,0.168l-0.154,0.166l-0.154,0.165l-0.156,0.163l-0.157,0.163l-0.158,0.16l-0.159,0.16l-0.161,0.158l-0.161,0.157l-0.163,0.155l-0.163,0.154l-0.165,0.153l-0.166,0.151l-0.167,0.15l-0.168,0.149l-0.17,0.147l-0.17,0.146l-0.172,0.145l-0.172,0.143l-0.174,0.142l-0.175,0.14l-0.176,0.14l-0.177,0.137l-0.179,0.137l-0.179,0.135l-0.181,0.134l-0.181,0.132l-0.183,0.131l-0.184,0.13l-0.185,0.128l-0.186,0.127l-0.188,0.126l-0.188,0.124l-0.19,0.123l-0.19,0.122l-0.192,0.12l-0.193,0.119l-0.194,0.117l-0.195,0.116l-0.197,0.115l-0.197,0.114l-0.199,0.112l-0.199,0.111l-0.201,0.109l-0.202,0.108l-0.203,0.107l-0.204,0.105l-0.206,0.104l-0.206,0.103l-0.208,0.101l-0.208,0.1l-0.21,0.098l-0.211,0.098l-0.212,0.096l-0.213,0.094l-0.215,0.093l-0.215,0.092l-0.217,0.09l-0.217,0.09l-0.219,0.087l-0.22,0.087l-0.221,0.085l-0.222,0.083l-0.224,0.083l-0.224,0.081l-0.226,0.079l-0.226,0.079l-0.228,0.076l-0.229,0.076l-0.23,0.074l-0.231,0.073l-0.233,0.072l-0.233,0.07l-0.235,0.069l-0.235,0.067l-0.237,0.066l-0.238,0.065l-0.239,0.063l-0.24,0.062l-0.242,0.061l-0.242,0.059l-0.244,0.058l-0.244,0.057l-0.246,0.055l-0.247,0.054l-0.248,0.052l-0.249,0.052l-0.251,0.05l-0.251,0.048l-0.253,0.047l-0.253,0.046l-0.255,0.044l-0.256,0.043l-0.257,0.042l-0.258,0.041l-0.26,0.039l-0.26,0.037l-0.262,0.036l-0.262,0.035l-0.264,0.034l-0.265,0.032l-0.266,0.031l-0.267,0.03l-0.269,0.028l-0.269,0.027l-0.271,0.025l-0.271,0.024l-0.273,0.023l-0.274,0.022l-0.275,0.02l-0.276,0.018l-0.278,0.018l-0.278,0.016l-0.28,0.014l-0.28,0.014l-0.282,0.012l-0.283,0.01l-0.284,0.009l-0.285,0.008l-0.287,0.007l-0.287,0.005l-53.856,0.864l0.027,-0.236l0.026,-0.239l0.026,-0.243l0.026,-0.247l0.025,-0.251l0.024,-0.254l0.025,-0.258l0.024,-0.261l0.023,-0.265l0.023,-0.269l0.022,-0.272l0.023,-0.276l0.021,-0.28l0.022,-0.283l0.021,-0.287l0.02,-0.291l0.02,-0.294l0.02,-0.298l0.019,-0.302l0.019,-0.305l0.018,-0.309l0.018,-0.313l0.017,-0.316l0.018,-0.32l0.016,-0.324l0.016,-0.327l0.032,-0.665l0.029,-0.68l0.028,-0.695l0.026,-0.709l0.025,-0.724l0.022,-0.739l0.022,-0.753l0.019,-0.768l0.018,-0.782l0.016,-0.797l0.014,-0.812l0.013,-0.826l0.011,-0.841l0.009,-0.856l0.008,-0.87l0.005,-0.885l0.005,-0.899l0.002,-0.914l0.001,-0.929l0,-123.552l0.001,-0.909l0.001,-0.893l0.003,-0.875l0.004,-0.858l0.005,-0.841l0.006,-0.823l0.008,-0.807l0.008,-0.789l0.01,-0.772l0.01,-0.755l0.012,-0.738l0.013,-0.721l0.014,-0.703l0.015,-0.687l0.017,-0.669l0.017,-0.652l0.019,-0.635l0.019,-0.618l0.021,-0.6l0.022,-0.584l0.023,-0.566l0.024,-0.549l0.026,-0.532l0.026,-0.515l0.028,-0.498l0.028,-0.48l0.03,-0.464l0.031,-0.446l0.032,-0.429l0.017,-0.208l0.016,-0.204l0.017,-0.199l0.018,-0.195l0.017,-0.191l0.018,-0.187l0.019,-0.184l0.021,-0.183l0.022,-0.183l0.025,-0.182l0.026,-0.181l0.028,-0.18l0.03,-0.18l0.032,-0.178l0.033,-0.178l0.035,-0.177l0.038,-0.177l0.039,-0.175l0.04,-0.175l0.043,-0.174l0.045,-0.173l0.046,-0.173l0.048,-0.172l0.05,-0.171l0.052,-0.17l0.054,-0.169l0.055,-0.169l0.057,-0.168l0.06,-0.167l0.061,-0.166l0.062,-0.166l0.065,-0.165l0.066,-0.164l0.069,-0.163l0.07,-0.162l0.072,-0.162l0.073,-0.161l0.076,-0.16l0.077,-0.159l0.08,-0.159l0.081,-0.158l0.083,-0.157l0.084,-0.156l0.087,-0.156l0.088,-0.154l0.091,-0.154l0.092,-0.153l0.093,-0.153l0.096,-0.151l0.098,-0.151l0.099,-0.15l0.101,-0.15l0.103,-0.148l0.105,-0.148l0.107,-0.147l0.108,-0.146l0.11,-0.146l0.113,-0.144l0.114,-0.144l0.115,-0.143l0.118,-0.143l0.12,-0.141l0.121,-0.141l0.123,-0.14l0.125,-0.139l0.127,-0.139l0.128,-0.138l0.131,-0.136l0.132,-0.137l0.134,-0.135l0.068,-0.067l0.068,-0.067l0.07,-0.066l0.07,-0.066l0.07,-0.065l0.072,-0.065l0.072,-0.064l0.073,-0.064l0.073,-0.064l0.074,-0.062l0.075,-0.063l0.076,-0.062l0.076,-0.061l0.077,-0.061l0.078,-0.06l0.078,-0.06l0.079,-0.059l0.08,-0.059l0.08,-0.059l0.082,-0.058l0.082,-0.057l0.082,-0.057l0.083,-0.056l0.085,-0.056l0.084,-0.056l0.086,-0.055l0.086,-0.054l0.087,-0.054l0.087,-0.054l0.088,-0.053l0.089,-0.052l0.09,-0.052l0.09,-0.052l0.091,-0.051l0.092,-0.05l0.093,-0.05l0.093,-0.05l0.094,-0.049l0.094,-0.048l0.096,-0.048l0.095,-0.048l0.097,-0.047l0.098,-0.046l0.098,-0.047l0.098,-0.045l0.1,-0.045l0.1,-0.045l0.101,-0.044l0.102,-0.044l0.102,-0.043l0.103,-0.042l0.104,-0.043l0.104,-0.041l0.105,-0.041l0.106,-0.041l0.107,-0.04l0.107,-0.04l0.108,-0.039l0.108,-0.039l0.11,-0.038l0.11,-0.038l0.11,-0.037l0.112,-0.037l0.112,-0.036l0.113,-0.036l0.113,-0.035l0.115,-0.035l0.115,-0.034l0.115,-0.034l0.117,-0.033l0.117,-0.033l0.118,-0.032l0.118,-0.032l0.119,-0.031l0.12,-0.031l0.121,-0.031l0.121,-0.029l0.122,-0.03l0.123,-0.029l0.123,-0.028l0.124,-0.028l0.125,-0.027l0.125,-0.027l0.127,-0.027l0.127,-0.025l0.127,-0.026l0.128,-0.025l0.13,-0.024l0.129,-0.024l0.131,-0.024l0.131,-0.023l0.132,-0.022l0.265,-0.044l0.269,-0.041l0.271,-0.04l0.275,-0.037l0.277,-0.036l0.28,-0.033l0.282,-0.032l0.286,-0.03l0.288,-0.027l0.291,-0.026l0.294,-0.024l0.297,-0.022l0.299,-0.019l0.303,-0.018l0.305,-0.016l0.308,-0.014l0.31,-0.012l0.314,-0.01l0,-9.504l-64.8,0Z" style="fill:#333;"/></g></g></svg>